<svg xmlns="http://www.w3.org/2000/svg"
    width="512"
    height="486"
    viewBox="0 0 512 486"
    version="1.1">
    <path d="M 120.942 121.558
            L -0.497 243 120.942 364.442
            L 242.380 485.883 243.190 485.383
            L 244 484.882 244 424.710
            L 244 364.538 183.261 303.769
            L 122.522 243 183.261 182.231
            L 244 121.462 244 61.290
            L 244 1.118 243.190 0.617
            L 242.380 0.117 120.942 121.558

            M 247.210 189.250
            L 247.500 197.500 256.500 197.500
            L 265.500 197.500 265.790 189.250
            L 266.081 181 256.500 181
            L 246.919 181 247.210 189.250

            M 205 208.500
            L 205 217.075 214.250 216.788
            L 223.500 216.500 223.500 208.500
            L 223.500 200.500 214.250 200.212
            L 205 199.925 205 208.500

            M 226.435 201.310
            L 225.902 202.698 226.201 209.599
            L 226.500 216.500 235.500 216.500
            L 244.500 216.500 244.500 208.500
            L 244.500 200.500 235.734 200.211
            L 226.967 199.922 226.435 201.310

            M 247.209 208.212
            L 247.500 216.500 256.500 216.500
            L 265.500 216.500 265.500 208.500
            L 265.500 200.500 256.209 200.212
            L 246.918 199.924 247.209 208.212

            M 302.233 206.751
            L 300.331 209.500 298.666 213.770
            L 297 218.040 297.006 223.770
            L 297.012 229.500 298.501 232.354
            L 299.989 235.208 299.512 235.981
            L 299.034 236.754 294.574 237.877
            L 290.114 239 231.080 239
            L 172.046 239 170.411 241.495
            L 168.777 243.990 169.916 253.652
            L 171.056 263.313 173.596 270.907
            L 176.135 278.500 179.123 283.173
            L 182.110 287.847 186.630 292.013
            L 191.150 296.179 196.334 298.553
            L 201.519 300.926 208.509 302.384
            L 215.500 303.843 223.500 304.527
            L 231.500 305.212 240.994 304.056
            L 250.488 302.900 256.994 301.345
            L 263.500 299.791 273.577 294.962
            L 283.655 290.133 291.311 282.983
            L 298.967 275.834 303.754 268.667
            L 308.542 261.500 312.021 253.751
            L 315.500 246.002 318.712 246.001
            L 321.925 246 327.253 244.006
            L 332.582 242.013 336.173 238.256
            L 339.764 234.500 340.882 232.316
            L 342 230.131 342 229.086
            L 342 228.041 337.750 225.870
            L 333.500 223.699 326.397 223.600
            L 319.294 223.500 317.605 218.747
            L 315.915 213.994 311.863 209.981
            L 307.810 205.969 305.972 204.985
            L 304.135 204.002 302.233 206.751

            M 184.703 219.631
            L 184 220.333 184 228.204
            L 184 236.075 193.250 235.788
            L 202.500 235.500 202.500 227.500
            L 202.500 219.500 193.953 219.214
            L 185.405 218.928 184.703 219.631

            M 205.703 219.631
            L 205 220.333 205 228.204
            L 205 236.075 214.250 235.788
            L 223.500 235.500 223.500 227.500
            L 223.500 219.500 214.953 219.214
            L 206.405 218.928 205.703 219.631

            M 226.703 219.631
            L 226 220.333 226 228.167
            L 226 236 235.540 236
            L 245.081 236 244.790 227.750
            L 244.500 219.500 235.953 219.214
            L 227.405 218.928 226.703 219.631

            M 247.703 219.631
            L 247 220.333 247 228.167
            L 247 236 256.540 236
            L 266.081 236 265.790 227.750
            L 265.500 219.500 256.953 219.214
            L 248.405 218.928 247.703 219.631

            M 268.703 219.631
            L 268 220.333 268 228.167
            L 268 236 277.540 236
            L 287.081 236 286.790 227.750
            L 286.500 219.500 277.953 219.214
            L 269.405 218.928 268.703 219.631"
        stroke="none"
        fill="#348cbc"
        fill-rule="evenodd"/>
    <path d="M 260 60.747
            L 260 121.494 320.747 182.247
            L 381.494 243 320.747 303.753
            L 260 364.506 260 425.253
            L 260 486 260.614 486
            L 261.227 486 275.331 472.250
            L 289.435 458.500 303.437 445
            L 317.439 431.500 331.939 417.500
            L 346.438 403.500 360.939 389.500
            L 375.441 375.500 389.971 361.323
            L 404.500 347.146 407 344.999
            L 409.500 342.852 423.500 329.172
            L 437.500 315.491 464.500 289.431
            L 491.500 263.372 502 253.186
            L 512.500 243 502 232.814
            L 491.500 222.628 464.500 196.569
            L 437.500 170.509 423.500 156.828
            L 409.500 143.148 407 141.001
            L 404.500 138.854 389.971 124.677
            L 375.441 110.500 360.471 96.048
            L 345.500 81.595 332.500 68.989
            L 319.500 56.383 291 28.941
            L 262.500 1.500 262.167 0.750
            L 261.833 0 260.917 0
            L 260 0 260 60.747"
        stroke="none"
        fill="#33bcdc"
        fill-rule="evenodd"/>
</svg>
