<svg version="1.2" xmlns="http://www.w3.org/2000/svg" viewBox="0 0 512 512" width="512" height="512">
	<title>New Project</title>
	<style>
		.s0 { fill: #2496ed } 
	</style>
	<path id="Layer 1" class="s0" d="m425.2 253.6c6.3-1.6 53.6 3.4 66.8-42.6-17.1-18-58.1-11-58.1-11 0 0-2.2-31.4-37.2-50.4-34.3 48.8-7.7 80.6-7.7 80.6 0 0-5.7 5.3-28.4 7.6 0 0.4-180.4 0.4-185 0.4-66.1 0.2-143-68.8-155.4 3.4 0.1 0.3-0.1 56.5-0.2 59.8 0.5 43.4 92.9 100.7 189.2 102.2 180.9-4 208.6-140 216-150z"/>
	<path id="Layer 3" class="s0" d="m272.5 228.8c-74.4-1.9-83.3 5.4-139.7-7.8-7.2-3.7-6.1-8.2-6.1-8.2 0 0-0.1-37.6 0-42.4 0-4.7 4.8-5.3 4.8-5.3l139.3-0.3c0 0 5 0.3 5 5.2 0 0-0.1 41.5-0.1 54.6 0.1 3.2-2.1 4.2-3.2 4.2z"/>
	<path id="Layer 4" class="s0" d="m263.3 156c4.1 0.3 4.1-2.9 4.1-2.9 0 0 0.1-41.8 0-42.6-0.1-0.8-1.8-2.6-4.1-2.5-2.2 0.1-3.6 1.1-3.7 2.5-0.1 1.4 0 42.6 0 42.6 0 0-0.4 2.6 3.7 2.9z"/>
</svg>